<svg id="Capa_1" data-name="Capa 1" xmlns="http://www.w3.org/2000/svg" viewBox="0 0 1068 320"><title>LogoMigliorisi</title><path d="M306.24,233.61v1.76c-.56.16-1,.27-1.24.33-2.1.46-3.32.89-3.65,1.3a4.92,4.92,0,0,0-.49,2.74v1l-.12,12,.07,17.48a4.7,4.7,0,0,0,.48,2.66c.33.38,1.44.71,3.34,1,.36.06.89.18,1.58.35v1.77q-3.81-.31-7.35-.32t-8,.32v-1.77a8.54,8.54,0,0,1,1-.29c2.25-.46,3.53-.89,3.86-1.27a5.57,5.57,0,0,0,.48-2.95l0-1.5.07-11q0-16.94-.07-18.74a2.48,2.48,0,0,0-.51-1.52c-.31-.36-1.5-.79-3.58-1.29l-1.25-.39v-1.76q5.16.33,8,.33Q302.13,233.94,306.24,233.61Z" style="fill:#fff"/><path d="M341,235.37v-1.76a45.91,45.91,0,0,0,4.73.33c.93,0,2.59-.11,5-.33l6.73,10.62,14.27,21.83c0-2.8,0-4.82,0-6.08,0-3-.07-8.41-.21-16.32-.06-3.69-.14-5.69-.22-6a1.87,1.87,0,0,0-.55-.87,11.09,11.09,0,0,0-3.31-1.08q-.37-.09-1.11-.33v-1.76q4.22.33,6.71.33t6.68-.33v1.76a8.73,8.73,0,0,1-.95.27,20.76,20.76,0,0,0-3.53,1.1,1.32,1.32,0,0,0-.42.55,5.5,5.5,0,0,0-.34,1.79c0,.38,0,3.1-.1,8.16s-.09,9.95-.09,14.68q0,8.38.24,14.16L373,277l-9.88-15.51-13-19.7.12,17.7q.12,11.61.26,12.39a1.82,1.82,0,0,0,.43.93c.34.4,1.52.82,3.53,1.26.23,0,.59.13,1.06.26v1.77q-3.61-.31-6.11-.32-2.09,0-7.28.32v-1.77l1.26-.35c1.89-.42,3-.81,3.29-1.17a1.76,1.76,0,0,0,.38-.93q.24-1.38.33-10.42.12-12.81.12-15.15c0-5-.05-7.79-.16-8.35a1.59,1.59,0,0,0-.62-1,18.86,18.86,0,0,0-4.48-1.24C342,235.64,341.61,235.53,341,235.37Z" style="fill:#fff"/><path d="M414.39,235.37v-1.76c2.64.22,4.64.33,6,.33a41.85,41.85,0,0,0,5-.33c.65,2.09,1.16,3.69,1.56,4.79q.78,2.21,6.17,16.8,2.3,6.21,4.64,12.1L448,240.4c.61-1.65,1.35-3.92,2.2-6.79q3.18.33,4.86.33c1.05,0,2.81-.11,5.29-.33v1.76c-.47.16-.83.27-1.07.33a13,13,0,0,0-3.67,1.23c-.41.4-.62,1.4-.62,3v.39l-.09,9.49q0,17.89.12,21.73a1.88,1.88,0,0,0,.36,1.2q.35.39,4.05,1.29c.2,0,.51.13.92.26v1.77c-2.84-.21-5.35-.32-7.51-.32s-4.83.11-7.85.32v-1.77c.62-.2,1.08-.33,1.4-.41a15.83,15.83,0,0,0,3.31-1,1.34,1.34,0,0,0,.55-.78,30.43,30.43,0,0,0,.22-4.86V241.15q-2.16,5.39-9.74,26c-1.39,3.78-2.41,6.66-3.08,8.66h-1.35q-5.29-14.89-13-34.61l.31,27.9c0,2.21.14,3.48.43,3.8s1.47.71,3.58,1.17l1.09.29v1.77q-4.11-.31-6.64-.32t-6.71.32v-1.77a9,9,0,0,1,1-.29q3.14-.78,3.51-1.35c.38-.56.58-1.93.59-4.1l.12-6.74q.12-9.21.12-17.87l0-3.65a10.37,10.37,0,0,0-.21-2.74,1.39,1.39,0,0,0-.69-.79,19.34,19.34,0,0,0-4-1.05Q415.26,235.64,414.39,235.37Z" style="fill:#fff"/><path d="M497.21,255.13q0-9.82,5-16.12a15.73,15.73,0,0,1,12.88-6.31,14,14,0,0,1,11.66,5.58q4.34,5.57,4.34,15.32,0,10.83-4.88,17.11A15.51,15.51,0,0,1,513.38,277a14.09,14.09,0,0,1-11.82-5.68Q497.21,265.6,497.21,255.13Zm5.2-.89q0,9.88,3.42,14.85t8.66,5a9.17,9.17,0,0,0,6.14-2.31,14.19,14.19,0,0,0,4.06-6.76,33.39,33.39,0,0,0,1.37-9.84,31,31,0,0,0-1.75-11.23,14.31,14.31,0,0,0-4.34-6.4,9.44,9.44,0,0,0-5.81-1.93,9.58,9.58,0,0,0-6.33,2.35,13.75,13.75,0,0,0-4.11,6.8A33.32,33.32,0,0,0,502.41,254.24Z" style="fill:#fff"/><path d="M568.26,235.37v-1.76q4.34.33,8,.33c1.6,0,3.26-.05,5-.12s3.07-.13,4-.13c3.24,0,5.65.87,7.23,2.58a9.51,9.51,0,0,1,2.35,6.61,12.39,12.39,0,0,1-.89,4.54,10.5,10.5,0,0,1-2.5,3.79,12.21,12.21,0,0,1-3.61,2.09,11.44,11.44,0,0,1,3.94.93,8,8,0,0,1,3.32,3.27,10.94,10.94,0,0,1,1.23,5.44,12.62,12.62,0,0,1-4.93,10.51q-3.34,2.63-9.93,2.63c-1,0-2.56-.06-4.67-.19-1.47-.09-2.29-.13-2.44-.13s-2.33.11-6.12.32v-1.77l1.11-.29c2.3-.56,3.57-1,3.82-1.26a2.8,2.8,0,0,0,.36-1.53q.18-2.78.18-15.77l0-13.23a22.2,22.2,0,0,0-.31-4.86,1.26,1.26,0,0,0-.5-.58,27.62,27.62,0,0,0-3.62-1.12Zm9.79,17.09,2.37,0a15.31,15.31,0,0,0,5.85-.84,6.45,6.45,0,0,0,3-2.95,10.19,10.19,0,0,0,1.14-4.9c0-2.65-.75-4.65-2.26-6q-1.6-1.44-5.25-1.44a24.65,24.65,0,0,0-4.56.45q-.3,4.51-.3,12.39C578,250,578,251.05,578.05,252.46Zm0,20.39a24.74,24.74,0,0,0,4.55.48c3,0,5.24-.88,6.71-2.64a10.88,10.88,0,0,0,2.21-7.21,9.62,9.62,0,0,0-1.23-5.15,6.31,6.31,0,0,0-3-2.66,16.22,16.22,0,0,0-5.54-.69q-2.25,0-3.72.06Z" style="fill:#fff"/><path d="M648.74,233.61v1.76q-.82.24-1.23.33c-2.1.46-3.32.89-3.65,1.3a4.89,4.89,0,0,0-.5,2.74v1l-.12,12,.07,17.48a4.59,4.59,0,0,0,.49,2.66q.48.57,3.33,1c.36.06.89.18,1.59.35v1.77q-3.83-.31-7.35-.32c-2.43,0-5.11.11-8,.32v-1.77a8.07,8.07,0,0,1,1-.29c2.24-.46,3.53-.89,3.85-1.27a5.54,5.54,0,0,0,.49-2.95l0-1.5.07-11q0-16.94-.07-18.74a2.42,2.42,0,0,0-.51-1.52c-.3-.36-1.5-.79-3.57-1.29-.29-.08-.7-.21-1.25-.39v-1.76c3.43.22,6.12.33,8,.33Q644.64,233.94,648.74,233.61Z" style="fill:#fff"/><path d="M684.64,235.37v-1.76q5.8.33,7.87.33c.85,0,3.57-.11,8.18-.33v1.76a50.41,50.41,0,0,0-5,1.23,1.36,1.36,0,0,0-.75.66,6.28,6.28,0,0,0-.41,2.6q0,2,0,22.15c0,2.65,0,6.2.07,10.63H705a8.1,8.1,0,0,0,3-.36,4.19,4.19,0,0,0,1.48-1.59,61.09,61.09,0,0,0,2.84-6.16h2l-1.89,6.67c-.33,1.24-.74,2.87-1.21,4.88q-9.81-.31-17.08-.32-5.13,0-9.54.32v-1.77a30.94,30.94,0,0,0,4.25-1.14,1.71,1.71,0,0,0,.86-.86,12.11,12.11,0,0,0,.22-3.14l.12-18.35L690,239a3.3,3.3,0,0,0-.35-1.91q-.56-.6-3.51-1.26C685.83,235.74,685.31,235.59,684.64,235.37Z" style="fill:#fff"/><path d="M765.69,233.61v1.76c-.56.16-1,.27-1.24.33-2.1.46-3.32.89-3.65,1.3a4.89,4.89,0,0,0-.5,2.74v1l-.11,12,.07,17.48a4.7,4.7,0,0,0,.48,2.66q.5.57,3.33,1c.37.06.9.18,1.59.35v1.77q-3.81-.31-7.35-.32t-8,.32v-1.77a8.54,8.54,0,0,1,1-.29c2.25-.46,3.53-.89,3.86-1.27a5.57,5.57,0,0,0,.48-2.95l0-1.5.07-11q0-16.94-.07-18.74a2.48,2.48,0,0,0-.51-1.52q-.46-.54-3.57-1.29l-1.26-.39v-1.76c3.43.22,6.12.33,8.05.33Q761.58,233.94,765.69,233.61Z" style="fill:#fff"/><path d="M818.27,232.89h1.49q3.19,10.38,7.87,23.56l5.52,15.23a3.69,3.69,0,0,0,.83,1.2,22,22,0,0,0,3.49,1.43v1.77c-2.88-.21-5-.32-6.35-.32s-3.77.11-7.12.32v-1.77a10.72,10.72,0,0,0,3.35-1.19,1.42,1.42,0,0,0,.47-1.05,8,8,0,0,0-.5-2.12l-2.41-7.31q-5-.06-7.31-.06l-6.49.06-2.49,7.57a10.59,10.59,0,0,0-.61,2.28.79.79,0,0,0,.29.64,12.23,12.23,0,0,0,2.76.92c.18.05.42.15.74.26v1.77c-2.71-.21-4.61-.32-5.72-.32-1.41,0-3.2.11-5.4.32v-1.77a7.32,7.32,0,0,0,3-1.34,6.48,6.48,0,0,0,1.23-1.92q1.36-3,6.88-19.06ZM812,259.65q3.3.12,4.71.12l7.27-.12-6-18Z" style="fill:#fff"/><path d="M872.53,235.37v-1.76c4.19.22,7.54.33,10.07.33,1.46,0,2.82,0,4.08-.07q2.52-.12,3.48-.12c3.09,0,5.41.92,7,2.76a11.41,11.41,0,0,1,2.32,7.51,14,14,0,0,1-1.06,5.62,11.13,11.13,0,0,1-3,4.12,13.61,13.61,0,0,1-4.13,2.12l7.9,13a33.25,33.25,0,0,0,1.84,2.85,5.06,5.06,0,0,0,1.55,1.07,26.47,26.47,0,0,0,4.48,1.52v1.77c-2.5-.21-4.32-.32-5.45-.32a26.79,26.79,0,0,0-4,.32c-.71-1.49-1.67-3.38-2.89-5.64s-2-3.6-2.23-4l-.45-.75-5.21-9.05a34.38,34.38,0,0,1-4.26-.38l.18,15.08a2.25,2.25,0,0,0,.43,1.35c.38.4,1.57.83,3.56,1.29.28.06.71.18,1.3.35v1.77q-4.29-.31-7.56-.32c-2.34,0-5,.11-7.85.32v-1.77l1-.26c2.26-.54,3.54-1,3.85-1.33a3.18,3.18,0,0,0,.54-1.88q0-.85.11-15.38L878,241.39a32.12,32.12,0,0,0-.13-3.72,1.15,1.15,0,0,0-.46-.72,10.92,10.92,0,0,0-3.68-1.28Zm9.94,18.32a30.73,30.73,0,0,0,3.81.33c2.88,0,5-.81,6.39-2.43a10.09,10.09,0,0,0,2.07-6.75,9,9,0,0,0-1.83-6,6.6,6.6,0,0,0-5.35-2.19c-.84,0-2.49.12-5,.36Z" style="fill:#fff"/><path d="M956.83,233.61v1.76c-.55.16-1,.27-1.24.33-2.1.46-3.31.89-3.64,1.3a4.81,4.81,0,0,0-.5,2.74v1l-.12,12,.07,17.48a4.59,4.59,0,0,0,.49,2.66q.48.57,3.33,1c.36.06.89.18,1.59.35v1.77q-3.82-.31-7.35-.32t-8,.32v-1.77a8.07,8.07,0,0,1,1-.29c2.25-.46,3.53-.89,3.85-1.27a5.44,5.44,0,0,0,.49-2.95l-.05-1.5.07-11q0-16.94-.07-18.74a2.42,2.42,0,0,0-.51-1.52c-.3-.36-1.5-.79-3.57-1.29-.29-.08-.7-.21-1.25-.39v-1.76q5.14.33,8,.33C951.65,233.94,954.09,233.83,956.83,233.61Z" style="fill:#fff"/><path d="M1009.41,232.89h1.49q3.21,10.38,7.87,23.56l5.53,15.23a3.54,3.54,0,0,0,.83,1.2,21.61,21.61,0,0,0,3.48,1.43v1.77c-2.88-.21-5-.32-6.35-.32s-3.76.11-7.11.32v-1.77a10.61,10.61,0,0,0,3.34-1.19,1.42,1.42,0,0,0,.47-1.05,8.24,8.24,0,0,0-.49-2.12l-2.41-7.31q-5-.06-7.31-.06l-6.5.06-2.49,7.57a10.59,10.59,0,0,0-.61,2.28.82.82,0,0,0,.29.64,12.23,12.23,0,0,0,2.76.92c.18.05.42.15.74.26v1.77c-2.7-.21-4.61-.32-5.71-.32-1.41,0-3.21.11-5.41.32v-1.77a7.38,7.38,0,0,0,3-1.34,6.91,6.91,0,0,0,1.23-1.92q1.35-3,6.87-19.06Zm-6.25,26.76c2.2.08,3.77.12,4.72.12l7.27-.12-6-18Z" style="fill:#fff"/><path d="M375.87,61.28l-.15.66H368.4L346,168.4,321.71,61.94h-33V74h9.64c2.44,0,3.2.62,3.41.88a6.91,6.91,0,0,1,.84,3.93v99.89c0,9.72-1.39,14.11-2.56,16.09-1.54,2.61-4.69,4.19-9.36,4.7l-2,.21v11.79h37.35V199.63l-2-.2c-3.51-.33-6.09-1.2-7.46-2.5a13.94,13.94,0,0,1-3.42-6.13c-.87-2.85-1.31-7.33-1.31-13.33V99.77l27.23,111.67h7.4l25-110.81v94a5.85,5.85,0,0,1-1,3.66c-.22.29-.89,1.15-3.06,1.15h-9.66v12H402.1v-12h-8.86c-1.93,0-3.27-.38-3.89-1.1a5.69,5.69,0,0,1-1-3.71V79.94c0-3.44.62-4.67.88-5,.43-.61,1.68-1,3.44-1h9.45v-12H375.87Z" style="fill:#fff"/><path d="M405.41,74h9c1.54,0,3.54.24,4.34,1.32.06.11.62,1.21.62,6.34V191.28c0,5.45-.64,6.93-.83,7.26s-1.28.88-3.36.88h-9.81v12h44.67v-12h-9.93c-1.7,0-2.82-.41-3.33-1.23-.07-.12-.69-1.28-.69-6.91V81.61c0-5.07.64-6.47.84-6.78,0,0,.6-.88,4-.88h9.1v-12H405.41Z" style="fill:#fff"/><path d="M504.37,152.09h9.57c1.13,0,2.61.18,3.32,1a5.19,5.19,0,0,1,.94,3.42v13.61c0,9.62-1.79,17.54-5.31,23.53-3.36,5.73-8,8.51-14.1,8.51-4.47,0-8.28-1.94-11.66-5.93-3.51-4.16-6.33-10.85-8.38-19.88-2.09-9.24-3.15-22.29-3.15-38.79,0-17,1.06-30.38,3.16-39.67,2-9.11,5-16,8.73-20.42s7.54-6.37,12-6.37c5.74,0,11,4.38,15.69,13,3.87,7.17,7.3,19.06,10.19,35.33l.34,1.91h7.93L531.29,58.9h-7.6L519.6,71.14a41.71,41.71,0,0,0-9.55-8.83,22.17,22.17,0,0,0-11.7-3.41c-7.07,0-14.08,3.62-20.83,10.76-6.58,7-11.82,16.41-15.57,28.13s-5.61,24.92-5.61,39.54,1.87,27.8,5.58,39.38,8.95,20.94,15.46,27.44c6.68,6.66,14.07,10,22,10a21.35,21.35,0,0,0,15.34-6.64A43.41,43.41,0,0,0,523,195.35c1,5.68,2.08,11.57,3.07,17.59l.32,1.93h7.92V157.2a6.93,6.93,0,0,1,1-4.08c.5-.68,1.52-1,3-1h7.15V140.57h-41Z" style="fill:#fff"/><path d="M618.77,153.12c-1.84,17.4-4.78,29.72-8.74,36.6-3.76,6.53-8.4,9.7-14.16,9.7H583.6c-3,0-3.8-.75-3.93-.9-.32-.4-.85-1.48-.85-4.3V79.94c0-3,.43-4.47.8-5.14a1.46,1.46,0,0,1,1.5-.85H593v-12H548.09V74h11a2,2,0,0,1,1.89.88,7.94,7.94,0,0,1,.83,4.13v113.1c0,3.62-.59,5.3-1.09,6.08-.21.32-.83,1.28-3.34,1.28h-9.34v12h77.09l2.17-60.39H619Z" style="fill:#fff"/><path d="M629.51,74h9c1.54,0,3.55.24,4.34,1.32.06.11.63,1.21.63,6.34V191.28c0,5.44-.64,6.93-.84,7.26s-1.28.88-3.36.88h-9.81v12h44.67v-12h-9.93c-1.69,0-2.81-.41-3.33-1.23-.07-.12-.68-1.28-.68-6.91V81.61c0-5.07.63-6.47.84-6.78s1.27-.88,4-.88h9.1v-12H629.51Z" style="fill:#fff"/><path d="M745,69.17c-6.83-6.82-14.3-10.27-22.2-10.27-7.34,0-14.43,3.5-21.09,10.41C695.24,76,690.08,85.4,686.38,97.16a131,131,0,0,0-5.53,39.28,134.23,134.23,0,0,0,5.7,40.16c3.81,12.14,9,21.65,15.35,28.26,6.54,6.77,13.69,10.2,21.26,10.2,7.72,0,15.07-3.49,21.86-10.39,6.63-6.72,11.9-16.19,15.67-28.12s5.6-25.2,5.6-39.82-1.88-27.95-5.58-39.67S751.69,75.84,745,69.17ZM723.4,202.65c-6.39,0-11.69-4.46-16.21-13.63-4.69-9.53-7.07-27.26-7.07-52.68,0-23.42,2.33-40.48,6.93-50.69,4.41-9.79,9.87-14.54,16.7-14.54,4.23,0,8,2,11.55,6.27,3.67,4.39,6.57,11.34,8.6,20.67,2.07,9.52,3.13,23,3.13,40.15,0,15.69-1.12,28.48-3.33,38-2.17,9.38-5.07,16.25-8.63,20.45C731.65,200.7,727.83,202.65,723.4,202.65Z" style="fill:#fff"/><path d="M849.66,177.2c-.23,7.22-.83,12.26-1.79,15a17,17,0,0,1-1.32,2.9,5.82,5.82,0,0,1-1.34-2.22c-1.25-2.93-2.47-8.61-3.63-16.9-1.7-12.19-3.18-20.09-4.52-24.18a30.08,30.08,0,0,0-5.56-10.31,25.11,25.11,0,0,0-6.4-5A30.64,30.64,0,0,0,836.61,131a30.46,30.46,0,0,0,9-12.91,50.23,50.23,0,0,0,3-18c0-11.18-2.59-20.39-7.7-27.38-5.24-7.16-12.67-10.79-22.09-10.79H771.49V74h10.76a2.65,2.65,0,0,1,2.41,1,7.47,7.47,0,0,1,.89,4.15V194.81a6.37,6.37,0,0,1-.88,3.67c-.17.24-.67.94-2.42.94H771.49v12h45v-12H805.88c-2,0-2.55-.75-2.74-1s-.63-1-.63-3.62V140.25h5a12.8,12.8,0,0,1,8.42,2.85,16.9,16.9,0,0,1,5.27,7.77c1.2,3.45,2.1,9.46,2.67,17.86,1,15.24,2,24.44,2.83,28.1,1.15,5.07,2.93,9,5.29,11.71a11.68,11.68,0,0,0,9.07,4.37c10.5,0,16.22-12,17-35.55l.08-2.42h-8.4ZM802.51,78.75c0-1.86.34-3.2,1-3.79,0,0,1.12-1,7.14-1,8.22,0,11.61,1.13,13,2.08,2,1.34,3.63,4,4.94,7.91,1.38,4.14,2.08,10,2.08,17.29,0,10.41-1.77,17.64-5.27,21.51s-8.32,5.79-14.7,5.79h-8.15Z" style="fill:#fff"/><path d="M860.29,74h9c1.54,0,3.55.24,4.34,1.32.06.11.63,1.21.63,6.34V191.28c0,5.44-.64,6.93-.83,7.26s-1.29.88-3.37.88h-9.81v12H905v-12H895c-1.69,0-2.81-.41-3.33-1.23-.07-.12-.68-1.28-.68-6.91V81.61c0-5.07.64-6.47.84-6.78s1.27-.88,4-.88H905v-12H860.29Z" style="fill:#fff"/><path d="M967.8,132c-4.17-3.82-11.11-7.44-21.21-11.08-6.65-2.38-11.18-4.59-13.45-6.58a18.06,18.06,0,0,1-5-7.56,33.68,33.68,0,0,1-1.74-11.37c0-6.93,1.54-12.85,4.58-17.6,2.9-4.52,6.48-6.72,11-6.72,5.51,0,10.32,3.32,14.71,10.15,4.58,7.12,8.11,18.72,10.48,34.5l.3,2h8L975,60.27h-7.9l-4.43,10.52a37.62,37.62,0,0,0-8.61-8.32,21,21,0,0,0-11.6-3.57c-8.4,0-15.35,4.46-20.66,13.26-5.11,8.47-7.7,19.43-7.7,32.55,0,12.7,2.64,22.7,7.86,29.76,3.79,5.09,10.56,9.5,20.7,13.47,8.54,3.3,14.29,6.11,17.1,8.35a18.43,18.43,0,0,1,5.85,7.84,30.79,30.79,0,0,1,1.9,11.29c0,7.64-1.73,14.19-5.14,19.48-3.28,5.09-7.36,7.56-12.47,7.56-6.41,0-12.34-4.17-17.63-12.4-5.52-8.58-9.13-20.54-10.74-35.57l-.22-2.07h-8.4V213.2h7.77l5.72-11.58c6.62,8.34,14.39,12.56,23.15,12.56,9.13,0,16.65-4.69,22.36-13.93,5.51-8.93,8.31-20.28,8.31-33.74a60.29,60.29,0,0,0-3-20A35.61,35.61,0,0,0,967.8,132Z" style="fill:#fff"/><path d="M1017.35,74.83c.19-.3,1.28-.88,4-.88h9.1v-12H985.79V74h9c1.54,0,3.54.24,4.33,1.32.07.11.63,1.21.63,6.34V191.28c0,5.44-.64,6.93-.83,7.26s-1.28.88-3.36.88h-9.81v12h44.67v-12h-9.93c-1.7,0-2.82-.41-3.33-1.23-.07-.12-.69-1.28-.69-6.91V81.61C1016.51,76.54,1017.15,75.14,1017.35,74.83Z" style="fill:#fff"/><polygon points="45.05 61 253.55 61 149.3 140.87 45.05 61" style="fill:#e13131"/><polygon points="45.05 132.76 143.79 212.24 45.05 212.24 45.05 132.76" style="fill:#e13131"/><polygon points="253.55 136.01 253.55 212.24 156.7 212.24 253.55 136.01" style="fill:#e13131"/><path d="M44.93,275.33V235.07h5.82c4.19,0,7.24.48,9.13,1.45a14.06,14.06,0,0,1,6.38,7.12,32.44,32.44,0,0,1,.48,22.71A15.21,15.21,0,0,1,62,273.14q-2.91,2.19-8.16,2.19Zm2.69-3.81h3.24c3.88,0,6.57-.34,8.07-1a10.5,10.5,0,0,0,5-5.31,22,22,0,0,0,1.81-9.4,23,23,0,0,0-2-10,11,11,0,0,0-5.48-5.66c-1.75-.77-4.65-1.15-8.68-1.15h-2Z" style="fill:#e13131"/><path d="M74,235.07H90.1V239H76.82v12.62H90v3.94H76.82v15.82H90v3.94H74Z" style="fill:#e13131"/><path d="M92.05,267.83l2.38-2.05q2.52,6.64,5.82,6.65a4.29,4.29,0,0,0,2.65-.95,5.86,5.86,0,0,0,1.89-2.53,8.86,8.86,0,0,0,.65-3.36,9.05,9.05,0,0,0-1-4,29.32,29.32,0,0,0-4.81-6.45,30.65,30.65,0,0,1-4.37-5.5,13.13,13.13,0,0,1-1.49-6.16,12.53,12.53,0,0,1,.88-4.79,8,8,0,0,1,2.47-3.41,5.51,5.51,0,0,1,3.46-1.25,5.77,5.77,0,0,1,3.71,1.42,16.65,16.65,0,0,1,3.66,5.18l-2.29,2.49a14.82,14.82,0,0,0-2.7-4,3.72,3.72,0,0,0-2.44-.95,3.28,3.28,0,0,0-2.77,1.48,6,6,0,0,0-1.08,3.63,8.7,8.7,0,0,0,.38,2.55,10.05,10.05,0,0,0,1.4,2.68q.54.76,3.62,4a26.48,26.48,0,0,1,5,6.87,14.7,14.7,0,0,1,1.35,6.05,12.73,12.73,0,0,1-2.31,7.61,6.81,6.81,0,0,1-5.64,3.23,6.64,6.64,0,0,1-4.64-2A17.89,17.89,0,0,1,92.05,267.83Z" style="fill:#e13131"/><path d="M114.4,275.33V235.07h5.82c4.2,0,7.24.48,9.14,1.45a14.06,14.06,0,0,1,6.38,7.12,32.44,32.44,0,0,1,.48,22.71,15.29,15.29,0,0,1-4.73,6.79q-2.91,2.19-8.16,2.19Zm2.69-3.81h3.25c3.88,0,6.57-.34,8.07-1a10.45,10.45,0,0,0,5-5.31,22,22,0,0,0,1.82-9.4,23,23,0,0,0-2-10,11,11,0,0,0-5.47-5.66q-2.64-1.16-8.68-1.15h-2Z" style="fill:#e13131"/><path d="M143.5,235.07h16.08V239H146.3v12.62h13.16v3.94H146.3v15.82h13.16v3.94h-16Z" style="fill:#e13131"/><path d="M179.06,235.07h5.51v40.26h-2.79V239h-4.4Z" style="fill:#e13131"/><path d="M201,276.34l-2.31-2.13,7.59-16.49a6.74,6.74,0,0,1-2.86.72c-2.23,0-4.13-1.15-5.68-3.46a14.88,14.88,0,0,1-2.33-8.53,16.62,16.62,0,0,1,1.12-6.26,10.85,10.85,0,0,1,3.2-4.47,7,7,0,0,1,4.43-1.67,6.73,6.73,0,0,1,4.31,1.62,10.8,10.8,0,0,1,3.1,4.52,17.12,17.12,0,0,1,1.12,6.18,20.73,20.73,0,0,1-.7,5.21,37.92,37.92,0,0,1-2.49,6.56ZM204,254.91a5,5,0,0,0,4.19-2.48,11.27,11.27,0,0,0,0-12,4.76,4.76,0,0,0-8.36,0,11.18,11.18,0,0,0,0,12A5,5,0,0,0,204,254.91Z" style="fill:#e13131"/><path d="M234.34,235.07v3.83h-10l-1.41,11a8.69,8.69,0,0,1,3.3-.77,7.4,7.4,0,0,1,6.32,3.68,16.47,16.47,0,0,1,2.48,9.43,20.09,20.09,0,0,1-1.27,7.28,11.84,11.84,0,0,1-3.47,5.07,7.77,7.77,0,0,1-5,1.77,7.06,7.06,0,0,1-5.76-3,14.55,14.55,0,0,1-2.81-7.75h2.88a11.33,11.33,0,0,0,1.1,3.77,6.58,6.58,0,0,0,2.06,2.34,4.71,4.71,0,0,0,2.7.89c1.84,0,3.43-1,4.75-3a13.38,13.38,0,0,0,2-7.52,11.22,11.22,0,0,0-1.79-6.61,5.58,5.58,0,0,0-4.79-2.54,12.19,12.19,0,0,0-6,2.16l2.6-20Z" style="fill:#e13131"/><path d="M251.13,234.05l2.31,2.17-7.59,16.47a6.64,6.64,0,0,1,2.86-.74q3.34,0,5.68,3.47a14.93,14.93,0,0,1,2.33,8.52,16.73,16.73,0,0,1-1.13,6.28,10.62,10.62,0,0,1-3.2,4.46,7,7,0,0,1-4.46,1.66,6.68,6.68,0,0,1-4.29-1.61,10.54,10.54,0,0,1-3.1-4.49,17.07,17.07,0,0,1-1.12-6.21,21.07,21.07,0,0,1,.69-5.19,39.64,39.64,0,0,1,2.49-6.56ZM248,255.48a5,5,0,0,0-4.17,2.48,11.25,11.25,0,0,0,0,12,4.75,4.75,0,0,0,8.35,0,11.25,11.25,0,0,0,0-12A5,5,0,0,0,248,255.48Z" style="fill:#e13131"/></svg>